{
  "accessors": [
    {
      "bufferView": 2,
      "componentType": 5126,
      "count": 4494,
      "max": [
        29.306549072265625,
        35.89101028442383,
        75.70538330078125
      ],
      "min": [
        -20.7763671875,
        -14.275415420532227,
        0.16404199600219727
      ],
      "type": "VEC3"
    },
    {
      "bufferView": 2,
      "byteOffset": 53928,
      "componentType": 5126,
      "count": 4494,
      "max": [
        0.9964379668235779,
        0.9964379072189331,
        1.0
      ],
      "min": [
        -0.9964379668235779,
        -0.9964379072189331,
        -1.0
      ],
      "type": "VEC3"
    },
    {
      "bufferView": 1,
      "componentType": 5126,
      "count": 4494,
      "max": [
        2.131016969680786,
        3.543307065963745
      ],
      "min": [
        -2.131016969680786,
        -3.543307065963745
      ],
      "type": "VEC2"
    },
    {
      "bufferView": 0,
      "componentType": 5125,
      "count": 6780,
      "type": "SCALAR"
    },
    {
      "bufferView": 2,
      "byteOffset": 107856,
      "componentType": 5126,
      "count": 1536,
      "max": [
        11.32541275024414,
        35.544376373291016,
        72.70341491699219
      ],
      "min": [
        -2.795229434967041,
        34.43309783935547,
        0.16404199600219727
      ],
      "type": "VEC3"
    },
    {
      "bufferView": 2,
      "byteOffset": 126288,
      "componentType": 5126,
      "count": 1536,
      "max": [
        0.9604109525680542,
        0.9604107737541199,
        1.0
      ],
      "min": [
        -0.9604109525680542,
        -0.9604108333587646,
        -1.0
      ],
      "type": "VEC3"
    },
    {
      "bufferView": 1,
      "byteOffset": 35952,
      "componentType": 5126,
      "count": 1536,
      "max": [
        3.743095636367798,
        7.2506561279296875
      ],
      "min": [
        -3.743095636367798,
        -3.137375956788691e-17
      ],
      "type": "VEC2"
    },
    {
      "bufferView": 0,
      "byteOffset": 27120,
      "componentType": 5125,
      "count": 3072,
      "type": "SCALAR"
    },
    {
      "bufferView": 2,
      "byteOffset": 144720,
      "componentType": 5126,
      "count": 524,
      "max": [
        78.56393432617188,
        24.90706443786621,
        57.90682601928711
      ],
      "min": [
        -44.62657165527344,
        -98.89635467529297,
        -5.5304792829483e-15
      ],
      "type": "VEC3"
    },
    {
      "bufferView": 2,
      "byteOffset": 151008,
      "componentType": 5126,
      "count": 524,
      "max": [
        1.0,
        1.0,
        8.304197081088205e-07
      ],
      "min": [
        -1.0,
        -1.0,
        -1.1227236882405123e-06
      ],
      "type": "VEC3"
    },
    {
      "bufferView": 1,
      "byteOffset": 48240,
      "componentType": 5126,
      "count": 524,
      "max": [
        10.568419456481934,
        2.399690866470337
      ],
      "min": [
        -23.824777603149414,
        -6.793221253908283e-24
      ],
      "type": "VEC2"
    },
    {
      "bufferView": 0,
      "byteOffset": 39408,
      "componentType": 5125,
      "count": 1146,
      "type": "SCALAR"
    },
    {
      "bufferView": 2,
      "byteOffset": 157296,
      "componentType": 5126,
      "count": 15048,
      "max": [
        78.56393432617188,
        43.64376449584961,
        80.239501953125
      ],
      "min": [
        -44.62657165527344,
        -98.89635467529297,
        -0.4921259880065918
      ],
      "type": "VEC3"
    },
    {
      "bufferView": 2,
      "byteOffset": 337872,
      "componentType": 5126,
      "count": 15048,
      "max": [
        1.0,
        1.0,
        1.0
      ],
      "min": [
        -1.0,
        -1.0,
        -1.0
      ],
      "type": "VEC3"
    },
    {
      "bufferView": 1,
      "byteOffset": 52432,
      "componentType": 5126,
      "count": 15048,
      "max": [
        102.20259857177734,
        99.19377136230469
      ],
      "min": [
        -48.9035758972168,
        -99.19377136230469
      ],
      "type": "VEC2"
    },
    {
      "bufferView": 0,
      "byteOffset": 43992,
      "componentType": 5125,
      "count": 44550,
      "type": "SCALAR"
    },
    {
      "bufferView": 2,
      "byteOffset": 518448,
      "componentType": 5126,
      "count": 10683,
      "max": [
        78.78323364257813,
        35.82816696166992,
        80.38057708740234
      ],
      "min": [
        -44.83061981201172,
        -99.11874389648438,
        -1.4934579994126812e-14
      ],
      "type": "VEC3"
    },
    {
      "bufferView": 2,
      "byteOffset": 646644,
      "componentType": 5126,
      "count": 10683,
      "max": [
        1.0,
        1.0,
        1.0
      ],
      "min": [
        -1.0,
        -1.0,
        -1.0
      ],
      "type": "VEC3"
    },
    {
      "bufferView": 1,
      "byteOffset": 172816,
      "componentType": 5126,
      "count": 10683,
      "max": [
        79.41592407226563,
        40.50979232788086
      ],
      "min": [
        -76.83110046386719,
        -65.48240661621094
      ],
      "type": "VEC2"
    },
    {
      "bufferView": 0,
      "byteOffset": 222192,
      "componentType": 5125,
      "count": 20874,
      "type": "SCALAR"
    },
    {
      "bufferView": 2,
      "byteOffset": 774840,
      "componentType": 5126,
      "count": 14745,
      "max": [
        77.75946807861328,
        43.277191162109375,
        72.70341491699219
      ],
      "min": [
        -44.046630859375,
        -97.53002166748047,
        7.882593639233978e-15
      ],
      "type": "VEC3"
    },
    {
      "bufferView": 2,
      "byteOffset": 951780,
      "componentType": 5126,
      "count": 14745,
      "max": [
        1.0,
        1.0,
        1.0
      ],
      "min": [
        -1.0,
        -1.0,
        -1.0
      ],
      "type": "VEC3"
    },
    {
      "bufferView": 1,
      "byteOffset": 258280,
      "componentType": 5126,
      "count": 14745,
      "max": [
        100.84117889404297,
        98.76602935791016
      ],
      "min": [
        -100.86007690429688,
        -98.76602935791016
      ],
      "type": "VEC2"
    },
    {
      "bufferView": 0,
      "byteOffset": 305688,
      "componentType": 5125,
      "count": 23826,
      "type": "SCALAR"
    },
    {
      "bufferView": 2,
      "byteOffset": 1128720,
      "componentType": 5126,
      "count": 52816,
      "max": [
        77.81209564208984,
        43.31616973876953,
        75.70538330078125
      ],
      "min": [
        -44.11260986328125,
        -97.64851379394531,
        -1.9899503911346983e-07
      ],
      "type": "VEC3"
    },
    {
      "bufferView": 2,
      "byteOffset": 1762512,
      "componentType": 5126,
      "count": 52816,
      "max": [
        1.0,
        1.0,
        1.0
      ],
      "min": [
        -1.0,
        -1.0,
        -1.0
      ],
      "type": "VEC3"
    },
    {
      "bufferView": 1,
      "byteOffset": 376240,
      "componentType": 5126,
      "count": 52816,
      "max": [
        100.74038696289063,
        98.80760955810547
      ],
      "min": [
        -100.89788055419922,
        -98.80760955810547
      ],
      "type": "VEC2"
    },
    {
      "bufferView": 0,
      "byteOffset": 400992,
      "componentType": 5125,
      "count": 89310,
      "type": "SCALAR"
    },
    {
      "bufferView": 2,
      "byteOffset": 2396304,
      "componentType": 5126,
      "count": 120,
      "max": [
        50.630828857421875,
        -25.17141342163086,
        7.162073135375977
      ],
      "min": [
        43.50009536743164,
        -40.98326110839844,
        0.25262466073036194
      ],
      "type": "VEC3"
    },
    {
      "bufferView": 2,
      "byteOffset": 2397744,
      "componentType": 5126,
      "count": 120,
      "max": [
        0.9141283631324768,
        0.914143443107605,
        1.0
      ],
      "min": [
        -0.9141283631324768,
        -0.914143443107605,
        -1.0
      ],
      "type": "VEC3"
    },
    {
      "bufferView": 1,
      "byteOffset": 798768,
      "componentType": 5126,
      "count": 120,
      "max": [
        4.222769260406494,
        6.899606227874756
      ],
      "min": [
        -4.222769260406494,
        -3.4547243118286133
      ],
      "type": "VEC2"
    },
    {
      "bufferView": 0,
      "byteOffset": 758232,
      "componentType": 5125,
      "count": 180,
      "type": "SCALAR"
    },
    {
      "bufferView": 2,
      "byteOffset": 2399184,
      "componentType": 5126,
      "count": 3756,
      "max": [
        26.17473602294922,
        35.84149169921875,
        80.38057708740234
      ],
      "min": [
        -17.64455223083496,
        17.833534240722656,
        6.975720185948414e-14
      ],
      "type": "VEC3"
    },
    {
      "bufferView": 2,
      "byteOffset": 2444256,
      "componentType": 5126,
      "count": 3756,
      "max": [
        0.9141279458999634,
        0.9141445755958557,
        1.0
      ],
      "min": [
        -0.9141279458999634,
        -0.9141445755958557,
        -1.0
      ],
      "type": "VEC3"
    },
    {
      "bufferView": 1,
      "byteOffset": 799728,
      "componentType": 5126,
      "count": 3756,
      "max": [
        9.84253215789795,
        3.5008065700531006
      ],
      "min": [
        -9.84253215789795,
        -3.5008065700531006
      ],
      "type": "VEC2"
    },
    {
      "bufferView": 0,
      "byteOffset": 758952,
      "componentType": 5125,
      "count": 6312,
      "type": "SCALAR"
    },
    {
      "bufferView": 2,
      "byteOffset": 2489328,
      "componentType": 5126,
      "count": 212,
      "max": [
        29.809648513793945,
        35.404396057128906,
        76.3615493774414
      ],
      "min": [
        -21.118257522583008,
        -28.576114654541016,
        75.70538330078125
      ],
      "type": "VEC3"
    },
    {
      "bufferView": 2,
      "byteOffset": 2491872,
      "componentType": 5126,
      "count": 212,
      "max": [
        0.9999988675117493,
        0.999500036239624,
        1.0
      ],
      "min": [
        -0.9999769926071167,
        -1.0,
        -1.0
      ],
      "type": "VEC3"
    },
    {
      "bufferView": 1,
      "byteOffset": 829776,
      "componentType": 5126,
      "count": 212,
      "max": [
        63.56708526611328,
        27.80177879333496
      ],
      "min": [
        -35.618473052978516,
        -27.80177879333496
      ],
      "type": "VEC2"
    },
    {
      "bufferView": 0,
      "byteOffset": 784200,
      "componentType": 5125,
      "count": 498,
      "type": "SCALAR"
    }
  ],
  "asset": {
    "extras": {
      "author": "ATD-London (https://sketchfab.com/ATD-London)",
      "license": "CC-BY-4.0 (http://creativecommons.org/licenses/by/4.0/)",
      "source": "https://sketchfab.com/3d-models/park-heights-woking-4dff14e50bcc48e2a9b7d74dd76d61dd",
      "title": "Park Heights, Woking"
    },
    "generator": "Sketchfab-13.98.0",
    "version": "2.0"
  },
  "bufferViews": [
    {
      "buffer": 0,
      "byteLength": 786192,
      "name": "floatBufferViews",
      "target": 34963
    },
    {
      "buffer": 0,
      "byteLength": 831472,
      "byteOffset": 786192,
      "byteStride": 8,
      "name": "floatBufferViews",
      "target": 34962
    },
    {
      "buffer": 0,
      "byteLength": 2494416,
      "byteOffset": 1617664,
      "byteStride": 12,
      "name": "floatBufferViews",
      "target": 34962
    }
  ],
  "buffers": [
    {
      "byteLength": 4112080,
      "uri": "scene.bin"
    }
  ],
  "extensionsRequired": [
    "KHR_materials_pbrSpecularGlossiness"
  ],
  "extensionsUsed": [
    "KHR_materials_pbrSpecularGlossiness"
  ],
  "images": [
    {
      "uri": "textures/Brick_Common_diffuse.png"
    },
    {
      "uri": "textures/Metal_-_Aluminum_emissive.png"
    }
  ],
  "materials": [
    {
      "doubleSided": true,
      "extensions": {
        "KHR_materials_pbrSpecularGlossiness": {
          "diffuseFactor": [
            0.545098,
            0.545098,
            0.545098,
            1.0
          ],
          "glossinessFactor": 0.0,
          "specularFactor": [
            0.0,
            0.0,
            0.0
          ]
        }
      },
      "name": "00-Material_01"
    },
    {
      "doubleSided": true,
      "extensions": {
        "KHR_materials_pbrSpecularGlossiness": {
          "diffuseFactor": [
            0.6,
            0.6,
            0.6,
            1.0
          ],
          "glossinessFactor": 0.0,
          "specularFactor": [
            0.0,
            0.0,
            0.0
          ]
        }
      },
      "name": "Aluminum"
    },
    {
      "doubleSided": true,
      "emissiveTexture": {
        "index": 0
      },
      "extensions": {
        "KHR_materials_pbrSpecularGlossiness": {
          "diffuseFactor": [
            1.0,
            1.0,
            1.0,
            1.0
          ],
          "diffuseTexture": {
            "index": 0
          },
          "glossinessFactor": 0.0,
          "specularFactor": [
            1.0,
            1.0,
            1.0
          ]
        }
      },
      "name": "Brick_Common"
    },
    {
      "doubleSided": true,
      "extensions": {
        "KHR_materials_pbrSpecularGlossiness": {
          "diffuseFactor": [
            0.16111610572391852,
            0.12967465899129177,
            0.12967465899129177,
            1.0
          ],
          "glossinessFactor": 0.0,
          "specularFactor": [
            0.0,
            0.0,
            0.0
          ]
        }
      },
      "name": "Default"
    },
    {
      "doubleSided": true,
      "extensions": {
        "KHR_materials_pbrSpecularGlossiness": {
          "diffuseFactor": [
            0.8373390532284241,
            0.8373390532284241,
            0.8373390532284241,
            1.0
          ],
          "glossinessFactor": 0.0,
          "specularFactor": [
            0.0,
            0.0,
            0.0
          ]
        }
      },
      "name": "Default_Wall"
    },
    {
      "alphaMode": "BLEND",
      "doubleSided": true,
      "extensions": {
        "KHR_materials_pbrSpecularGlossiness": {
          "diffuseFactor": [
            0.09234009977378385,
            0.2604646758215929,
            0.2953043464009595,
            0.2
          ],
          "glossinessFactor": 0.0,
          "specularFactor": [
            0.0,
            0.0,
            0.0
          ]
        }
      },
      "name": "Glass"
    },
    {
      "doubleSided": true,
      "emissiveTexture": {
        "index": 1
      },
      "extensions": {
        "KHR_materials_pbrSpecularGlossiness": {
          "diffuseFactor": [
            0.11632695176529188,
            0.12256760431052603,
            0.11584505741017981,
            1.0
          ],
          "glossinessFactor": 0.0,
          "specularFactor": [
            0.0,
            0.0,
            0.0
          ]
        }
      },
      "name": "Metal_-_Aluminum"
    },
    {
      "doubleSided": true,
      "emissiveTexture": {
        "index": 1
      },
      "extensions": {
        "KHR_materials_pbrSpecularGlossiness": {
          "diffuseFactor": [
            1.0,
            1.0,
            1.0,
            1.0
          ],
          "diffuseTexture": {
            "index": 1
          },
          "glossinessFactor": 0.0,
          "specularFactor": [
            0.0,
            0.0,
            0.0
          ]
        }
      },
      "name": "Metal_-_Aluminum-Finsh"
    },
    {
      "doubleSided": true,
      "emissiveTexture": {
        "index": 1
      },
      "extensions": {
        "KHR_materials_pbrSpecularGlossiness": {
          "diffuseFactor": [
            0.2873652189445176,
            0.3206165176906652,
            0.29136987866780845,
            1.0
          ],
          "glossinessFactor": 0.0,
          "specularFactor": [
            0.0,
            0.0,
            0.0
          ]
        }
      },
      "name": "Metal_-_Aluminum_Ext"
    },
    {
      "doubleSided": true,
      "extensions": {
        "KHR_materials_pbrSpecularGlossiness": {
          "diffuseFactor": [
            0.94902,
            0.94902,
            1.0,
            1.0
          ],
          "glossinessFactor": 0.0,
          "specularFactor": [
            0.0,
            0.0,
            0.0
          ]
        }
      },
      "name": "Paint_-_White_Lining"
    }
  ],
  "meshes": [
    {
      "name": "Object_0",
      "primitives": [
        {
          "attributes": {
            "NORMAL": 1,
            "POSITION": 0,
            "TEXCOORD_0": 2
          },
          "indices": 3,
          "material": 0,
          "mode": 4
        }
      ]
    },
    {
      "name": "Object_1",
      "primitives": [
        {
          "attributes": {
            "NORMAL": 5,
            "POSITION": 4,
            "TEXCOORD_0": 6
          },
          "indices": 7,
          "material": 1,
          "mode": 4
        }
      ]
    },
    {
      "name": "Object_2",
      "primitives": [
        {
          "attributes": {
            "NORMAL": 9,
            "POSITION": 8,
            "TEXCOORD_0": 10
          },
          "indices": 11,
          "material": 2,
          "mode": 4
        }
      ]
    },
    {
      "name": "Object_3",
      "primitives": [
        {
          "attributes": {
            "NORMAL": 13,
            "POSITION": 12,
            "TEXCOORD_0": 14
          },
          "indices": 15,
          "material": 3,
          "mode": 4
        }
      ]
    },
    {
      "name": "Object_4",
      "primitives": [
        {
          "attributes": {
            "NORMAL": 17,
            "POSITION": 16,
            "TEXCOORD_0": 18
          },
          "indices": 19,
          "material": 4,
          "mode": 4
        }
      ]
    },
    {
      "name": "Object_5",
      "primitives": [
        {
          "attributes": {
            "NORMAL": 21,
            "POSITION": 20,
            "TEXCOORD_0": 22
          },
          "indices": 23,
          "material": 5,
          "mode": 4
        }
      ]
    },
    {
      "name": "Object_6",
      "primitives": [
        {
          "attributes": {
            "NORMAL": 25,
            "POSITION": 24,
            "TEXCOORD_0": 26
          },
          "indices": 27,
          "material": 6,
          "mode": 4
        }
      ]
    },
    {
      "name": "Object_7",
      "primitives": [
        {
          "attributes": {
            "NORMAL": 29,
            "POSITION": 28,
            "TEXCOORD_0": 30
          },
          "indices": 31,
          "material": 7,
          "mode": 4
        }
      ]
    },
    {
      "name": "Object_8",
      "primitives": [
        {
          "attributes": {
            "NORMAL": 33,
            "POSITION": 32,
            "TEXCOORD_0": 34
          },
          "indices": 35,
          "material": 8,
          "mode": 4
        }
      ]
    },
    {
      "name": "Object_9",
      "primitives": [
        {
          "attributes": {
            "NORMAL": 37,
            "POSITION": 36,
            "TEXCOORD_0": 38
          },
          "indices": 39,
          "material": 9,
          "mode": 4
        }
      ]
    }
  ],
  "nodes": [
    {
      "children": [
        1
      ],
      "matrix": [
        1.0,
        0.0,
        0.0,
        0.0,
        0.0,
        2.220446049250313e-16,
        -1.0,
        0.0,
        0.0,
        1.0,
        2.220446049250313e-16,
        0.0,
        0.0,
        0.0,
        0.0,
        1.0
      ],
      "name": "Sketchfab_model"
    },
    {
      "children": [
        2,
        3,
        4,
        5,
        6,
        7,
        8,
        9,
        10,
        11
      ],
      "name": "Block M_Arch_2015.obj.cleaner.materialmerger.gles"
    },
    {
      "mesh": 0,
      "name": "Object_2"
    },
    {
      "mesh": 1,
      "name": "Object_3"
    },
    {
      "mesh": 2,
      "name": "Object_4"
    },
    {
      "mesh": 3,
      "name": "Object_5"
    },
    {
      "mesh": 4,
      "name": "Object_6"
    },
    {
      "mesh": 5,
      "name": "Object_7"
    },
    {
      "mesh": 6,
      "name": "Object_8"
    },
    {
      "mesh": 7,
      "name": "Object_9"
    },
    {
      "mesh": 8,
      "name": "Object_10"
    },
    {
      "mesh": 9,
      "name": "Object_11"
    }
  ],
  "samplers": [
    {
      "magFilter": 9729,
      "minFilter": 9987,
      "wrapS": 10497,
      "wrapT": 10497
    }
  ],
  "scene": 0,
  "scenes": [
    {
      "name": "Sketchfab_Scene",
      "nodes": [
        0
      ]
    }
  ],
  "textures": [
    {
      "sampler": 0,
      "source": 0
    },
    {
      "sampler": 0,
      "source": 1
    }
  ]
}
